<svg width="71" height="55" viewBox="0 0 71 55" fill="none" xmlns="http://www.w3.org/2000/svg">
<rect x="2.5" y="2.5" width="66" height="50" rx="2.5" fill="url(#paint0_linear)" stroke="black" stroke-width="3"/>
<path d="M46.3594 32.2143C46.3594 38.1785 41.5032 43.0238 35.5001 43.0238C29.497 43.0238 24.6409 38.1785 24.6409 32.2143C24.6409 26.2501 29.497 21.4048 35.5001 21.4048C41.5032 21.4048 46.3594 26.2501 46.3594 32.2143Z" fill="white" fill-opacity="0.25" stroke="black" stroke-width="3"/>
<line x1="1" y1="11.5" x2="68" y2="11.5" stroke="black" stroke-width="3"/>
<mask id="path-4-inside-1" fill="white">
<path d="M43.8594 32.2143C46.0685 32.2143 47.9205 30.3775 47.2127 28.2848C46.9392 27.4759 46.5807 26.6941 46.141 25.9529C45.0161 24.0565 43.4008 22.4954 41.4638 21.4326C39.5267 20.3698 37.3388 19.8441 35.1282 19.9104C34.2648 19.9363 33.4102 20.0521 32.578 20.2538C30.4255 20.7755 29.8605 23.329 31.0474 25.1989L34.3218 30.3578C35.0556 31.5139 36.3297 32.2143 37.699 32.2143H43.8594Z"/>
</mask>
<path d="M43.8594 32.2143C46.0685 32.2143 47.9205 30.3775 47.2127 28.2848C46.9392 27.4759 46.5807 26.6941 46.141 25.9529C45.0161 24.0565 43.4008 22.4954 41.4638 21.4326C39.5267 20.3698 37.3388 19.8441 35.1282 19.9104C34.2648 19.9363 33.4102 20.0521 32.578 20.2538C30.4255 20.7755 29.8605 23.329 31.0474 25.1989L34.3218 30.3578C35.0556 31.5139 36.3297 32.2143 37.699 32.2143H43.8594Z" fill="url(#paint1_linear)" stroke="black" stroke-width="6" mask="url(#path-4-inside-1)"/>
<defs>
<linearGradient id="paint0_linear" x1="70" y1="1" x2="1.15784" y2="4.2964" gradientUnits="userSpaceOnUse">
<stop stop-color="#8B8B8B"/>
<stop offset="0.338542" stop-color="#BABABA"/>
<stop offset="0.661458" stop-color="#C9C9C9"/>
<stop offset="1" stop-color="#AAAAAA"/>
</linearGradient>
<linearGradient id="paint1_linear" x1="47.8594" y1="19.9048" x2="23.1745" y2="20.8164" gradientUnits="userSpaceOnUse">
<stop stop-color="#8B8B8B"/>
<stop offset="0.338542" stop-color="#BABABA"/>
<stop offset="0.661458" stop-color="#C9C9C9"/>
<stop offset="1" stop-color="#AAAAAA"/>
</linearGradient>
</defs>
</svg>