<svg width="83" height="82" viewBox="0 0 83 82" fill="none" xmlns="http://www.w3.org/2000/svg">
<path d="M20.5 13H52.5C62.7 13 71 21.3 71 31.5V61.5C71 71.7 62.7 80 52.5 80H20.5C10.3 80 2 71.7 2 61.5V31.5C2 21.3 10.2 13 20.5 13Z" stroke="url(#paint0_linear)" stroke-width="3" stroke-miterlimit="10"/>
<path d="M30.5 2H62.5C72.7 2 81 10.3 81 20.5V51.5C81 61.7 72.7 70 62.5 70H30.5C20.3 70 12 61.7 12 51.5V20.5C12 10.3 20.2 2 30.5 2Z" fill="#F6F6F6" stroke="black" stroke-width="3"/>
<path d="M62.5002 2H30.5002C22.6002 2 15.8002 7 13.2002 14H79.8002C77.1002 7 70.4002 2 62.5002 2Z" fill="url(#paint1_linear)" stroke="black" stroke-width="3" stroke-miterlimit="10"/>
<path d="M41.5 32.1996L46.8 28.0996V50.4996" stroke="black" stroke-width="3" stroke-linecap="round" stroke-linejoin="round"/>
<path d="M52.1 50.5H41.5" stroke="black" stroke-width="3" stroke-linecap="round" stroke-linejoin="round"/>
<defs>
<linearGradient id="paint0_linear" x1="70.9783" y1="46.4926" x2="1.97829" y2="46.4926" gradientUnits="userSpaceOnUse">
<stop stop-color="#8975FF"/>
<stop offset="0.484375" stop-color="#CE85DF"/>
<stop offset="1" stop-color="#B3A2FD"/>
</linearGradient>
<linearGradient id="paint1_linear" x1="79.7792" y1="7.99867" x2="13.1792" y2="7.99867" gradientUnits="userSpaceOnUse">
<stop stop-color="#8975FF"/>
<stop offset="0.484375" stop-color="#CE85DF"/>
<stop offset="1" stop-color="#B3A2FD"/>
</linearGradient>
</defs>
</svg>
